<?xml version="1.0" encoding="UTF-8"?>
<svg width="1200pt" height="1200pt" version="1.1" viewBox="0 0 1200 1200" xmlns="http://www.w3.org/2000/svg">
 <path d="m1074.2 205.31h-112.41v-26.672c0-10.359-8.3906-18.75-18.75-18.75s-18.75 8.3906-18.75 18.75v26.672h-191.21v-26.672c0-10.359-8.3906-18.75-18.75-18.75s-18.75 8.3906-18.75 18.75v26.672h-191.21v-26.672c0-10.359-8.3906-18.75-18.75-18.75s-18.75 8.3906-18.75 18.75v26.672h-191.21v-26.672c0-10.359-8.3906-18.75-18.75-18.75-10.359 0-18.75 8.3906-18.75 18.75v26.672h-112.41c-33.188 0-60.188 27.094-60.188 60.375v69.938c0 10.359 8.3906 18.75 18.75 18.75 10.359 0 18.75-8.3906 18.75-18.75v-69.938c0-12.609 10.172-22.875 22.688-22.875h112.41v26.766c0 10.359 8.3906 18.75 18.75 18.75 10.359 0 18.75-8.3906 18.75-18.75v-26.766h191.21v26.766c0 10.359 8.3906 18.75 18.75 18.75s18.75-8.3906 18.75-18.75v-26.766h191.21v26.766c0.375 24.656 37.125 24.609 37.5 0v-26.719h191.21v26.766c0.28125 24.609 37.172 24.609 37.5 0v-26.719h112.41c12.516 0 22.688 10.266 22.688 22.875v115.73l-1010.9-0.09375c-10.734-1.7344-20.438 8.0625-20.344 18.703v579.74c0 33.188 27 60.188 60.188 60.188 214.18-0.046875 740.58 0.046875 948.37 0 33.188 0 60.188-27 60.188-60.188v-714.19c0-33.281-27-60.375-60.188-60.375zm-455.81 797.26c58.359-26.25 139.08-66 219.52-116.95-50.766 83.859-87.188 110.67-97.219 116.95zm348.84-261.79c-16.688-8.3906-21.984-22.734-38.906-20.25-5.8125 1.3594-10.688 5.3906-13.031 10.875-13.172 30.797-25.875 58.125-38.109 82.5-83.812 60.141-174.66 108-243.98 140.58 99.328-113.67 175.74-289.64 201.71-353.86 68.953 52.594 131.44 71.203 185.72 55.453 11.531-3.3281 22.078-8.0625 31.641-13.734-21.141 32.719-49.781 65.578-85.078 98.391zm-26.953 27.234c35.438 23.344 83.156 46.125 129.05 29.953-32.906 63.281-104.2 146.9-257.29 189.47 33.094-38.625 77.719-105.33 128.26-219.42zm111.7-3.8438c-15.328 4.0312-32.719 0.75-49.266-5.4375 40.641-39.234 72.047-78.844 94.172-118.64v74.344c-10.547 27.844-25.641 44.672-44.906 49.734zm-948.84 215.72v-560.95h993.74v108.52c-4.5 12.469-30 76.266-86.672 92.719-46.922 13.594-104.53-8.0625-171.32-64.359-9.4688-8.3906-25.547-4.125-29.625 7.7812-1.3125 3.5625-134.44 354.98-289.31 439.03l-394.13-0.046875c-12.516 0-22.688-10.172-22.688-22.688zm971.06 22.688h-190.87c117.05-47.25 180-119.77 213.56-179.58v156.89c0 12.516-10.172 22.688-22.688 22.688z"/>
 <path d="m305.68 511.97h-126.94c-10.359 0-18.75 8.3906-18.75 18.75v127.03c0 10.359 8.3906 18.75 18.75 18.75h126.94c10.359 0 18.75-8.3906 18.75-18.75v-127.03c0-10.359-8.3906-18.75-18.75-18.75zm-18.75 127.03h-89.438v-89.531h89.438z"/>
 <path d="m417.28 676.5h126.94c10.359 0 18.75-8.3906 18.75-18.75v-127.03c0-10.359-8.3906-18.75-18.75-18.75h-126.94c-10.359 0-18.75 8.3906-18.75 18.75v127.03c0 10.359 8.3906 18.75 18.75 18.75zm18.75-127.03h89.438v89.531h-89.438z"/>
 <path d="m655.87 676.5h72.375c24.656-0.42188 24.656-37.078 0-37.5h-53.625v-89.438h106.88c24.609-0.375 24.703-37.078 0-37.5h-125.63c-10.359 0-18.75 8.3906-18.75 18.75v126.94c0 10.359 8.3906 18.75 18.75 18.75z"/>
 <path d="m894.37 570c11.156 0.046875 19.641-9.6562 18.75-20.625h89.438v23.25c0.375 24.609 37.125 24.656 37.5 0v-42c0-10.359-8.3906-18.75-18.75-18.75h-126.94c-10.359 0-18.75 8.3906-18.75 18.75v20.625c0 10.359 8.3906 18.75 18.75 18.75z"/>
 <path d="m305.68 744.37h-126.94c-10.359 0-18.75 8.3906-18.75 18.75v127.03c0 10.359 8.3906 18.75 18.75 18.75h126.94c10.359 0 18.75-8.3906 18.75-18.75v-127.03c0-10.359-8.3906-18.75-18.75-18.75zm-18.75 127.03h-89.438v-89.531h89.438z"/>
 <path d="m544.18 908.9c10.359 0 18.75-8.3906 18.75-18.75v-127.03c0-10.359-8.3906-18.75-18.75-18.75h-126.94c-10.359 0-18.75 8.3906-18.75 18.75v127.03c0 10.359 8.3906 18.75 18.75 18.75zm-108.19-127.03h89.438v89.531h-89.438z"/>
</svg>
