<?xml version="1.0" encoding="UTF-8"?>
<svg width="1200pt" height="1200pt" version="1.1" viewBox="0 0 1200 1200" xmlns="http://www.w3.org/2000/svg">
 <path d="m1057 531.01-441.8-375.81c-8.7578-7.4453-21.617-7.4453-30.367 0l-441.8 375.82c-23.445 19.949-21.395 38.055-18.074 47.062 3.3203 9.0078 13.473 24.133 44.27 24.133h87.59c12.43 0 23.035 10.5 23.137 22.922l3.2891 355.87c0.33594 38.258 31.742 69.383 70.012 69.383l111.39-0.003907c12.91 0 23.391-10.445 23.438-23.352l1.0781-298.57h221.73l1.0586 298.55c0.046875 12.91 10.527 23.352 23.438 23.352h111.39c38.258 0 69.664-31.125 70.012-69.375l3.2891-355.87c0.11328-12.43 10.715-22.93 23.148-22.93h87.602c30.789 0 40.949-15.121 44.258-24.133 3.3125-8.9961 5.375-27.098-18.082-47.059zm-113.79 24.328c-38.25 0-69.656 31.117-70.023 69.367l-3.2891 355.88c-0.11328 12.43-10.707 22.93-23.137 22.93h-88.039l-0.98438-277.57c-0.23437-24.449-20.316-44.344-44.785-44.344l-225.9 0.003906c-24.449 0-44.531 19.895-44.766 44.484l-1.0039 277.43h-88.039c-12.43 0-23.023-10.5-23.137-22.93l-3.2891-355.87c-0.34766-38.258-31.754-69.375-70.012-69.375h-70.031l413.24-351.53 413.24 351.52z"/>
</svg>
