<?xml version="1.0" encoding="UTF-8"?>
<svg width="1200pt" height="1200pt" version="1.1" viewBox="0 0 1200 1200" xmlns="http://www.w3.org/2000/svg">
 <path d="m298.78 547.08c-3.375 0-6.6094-1.4531-8.8594-3.9375l-95.297-105.84c-16.312-18.141-21.234-42.703-13.219-65.625 8.0625-23.062 27.141-39.234 51-43.312l893.53-153.84c6-1.0781 11.859 2.625 13.547 8.5312 1.6875 5.8594-1.2188 12-6.8438 14.391l-829.18 348.71c-1.5469 0.60937-3.1406 0.9375-4.6875 0.9375zm727.78-331.22-790.03 135.98c-15.234 2.625-27.375 12.938-32.531 27.609-5.1562 14.625-1.9219 30.234 8.3906 41.766l89.531 99.469 724.55-304.78z"/>
 <path d="m567 893.53h-1.2188c-21-0.375-40.219-10.453-52.453-27.469l-134.29-187.55c-1.9219-2.625-2.625-6-2.0625-9.2344 0.60938-3.2344 2.5312-6 5.1562-7.7812l739.26-485.34c4.9219-3.2344 11.391-2.3906 15.375 1.9219 3.9375 4.3125 4.3125 10.781 0.70312 15.469l-518.39 674.29c-12.609 16.312-31.453 25.688-52.078 25.688zm-161.06-218.86 126.94 177.37c7.7812 10.922 19.922 17.297 33.234 17.531 13.078 0.60938 25.688-5.625 33.844-16.312l475.08-617.86-669.24 439.31z"/>
 <path d="m449.86 736.08-51.234-71.625c-2.5312-3.4688-6.7031-5.3906-11.062-4.9219-4.3125 0.46875-8.0625 3.2344-9.7031 7.3125l-73.688 174.94c-2.1562 5.0625-0.46875 11.062 3.8438 14.297 2.1562 1.5469 4.6875 2.3906 7.2188 2.3906 2.7656 0 5.3906-0.9375 7.6875-2.7656l124.92-103.31c4.7812-3.9375 5.7656-11.062 2.1562-16.219z"/>
 <path d="m315.24 858.37c-0.70312 0-1.3125 0-2.0625-0.14062-5.5312-0.9375-9.6094-5.625-9.9375-11.156l-16.453-311.29c-0.23438-5.0625 2.625-9.7031 7.3125-11.625l829.22-348.94c5.625-2.3906 12.375 0 15.234 5.3906 2.8594 5.5312 1.2188 12.234-3.9375 15.703l-736.08 483.14-72.234 171.61c-1.9219 4.5469-6.2344 7.3125-11.062 7.3125zm-3.9375-315.47 13.219 250.69 53.391-126.84c0.9375-2.1562 2.5312-4.0781 4.4531-5.3906l629.53-413.29-700.69 294.71z"/>
 <path d="m72 603.84c-4.6875 0-9.1406-2.7656-11.062-7.3125-2.5312-6.1406 0.375-13.219 6.4688-15.703l135.84-56.766c6.1406-2.5312 13.219 0.375 15.703 6.4688 2.5312 6.1406-0.375 13.219-6.4688 15.703l-135.84 56.766c-1.5469 0.60938-3.1406 0.9375-4.6875 0.9375z"/>
 <path d="m72 822.14c-4.3125 0-8.625-2.3906-10.688-6.6094-3-5.8594-0.70312-13.078 5.2969-16.078l183.47-93.609c5.8594-3 13.078-0.70312 16.219 5.2969 3 5.8594 0.70312 13.078-5.2969 16.078l-183.47 93.609c-1.7812 0.84375-3.6094 1.3125-5.3906 1.3125z"/>
 <path d="m72 715.78c-4.5469 0-8.8594-2.5312-10.922-6.9375-2.7656-6-0.14062-13.219 5.8594-15.938l150.47-69.703c6-2.7656 13.219-0.14062 15.938 5.8594 2.7656 6 0.14062 13.219-5.8594 15.938l-150.47 69.703c-1.6875 0.70312-3.375 1.0781-5.0625 1.0781z"/>
 <path d="m255.47 1003.8c-3.375 0-6.6094-1.3125-9-4.0781-4.3125-4.9219-3.9375-12.609 1.0781-16.922l133.45-117.61c4.9219-4.4531 12.609-3.9375 16.922 1.0781 4.3125 4.9219 3.9375 12.609-1.0781 16.922l-133.45 117.61c-2.2969 2.0625-5.1562 3-7.9219 3z"/>
 <path d="m363.71 1025.8c-3.1406 0-6.375-1.2188-8.625-3.7031-4.5469-4.7812-4.4531-12.375 0.375-16.922l113.77-108.84c4.7812-4.5469 12.375-4.4531 16.922 0.375 4.5469 4.7812 4.4531 12.375-0.375 16.922l-113.77 108.84c-2.2969 2.2969-5.2969 3.375-8.2969 3.375z"/>
</svg>
