<?xml version="1.0" encoding="UTF-8"?>
<svg width="1200pt" height="1200pt" version="1.1" viewBox="0 0 1200 1200" xmlns="http://www.w3.org/2000/svg">
 <path d="m1152.1 554.51-202.63-147.23c-8.3398-6.0508-17.387-9-27.688-9h-133.06l-163.54-118.82c-3.0508-2.2891-6.332-4.1016-9.7344-5.4609v-32.031h97.762c5.7656 0 11.043-3.207 13.715-8.3125 2.668-5.1055 2.2656-11.277-1.0391-16.004l-22.617-32.363 22.617-32.363c3.3047-4.7266 3.6992-10.898 1.0391-16.004-2.668-5.1055-7.9453-8.3125-13.715-8.3125h-97.762v-0.24609c0-8.5469-6.918-15.465-15.465-15.465s-15.465 6.918-15.465 15.465v145.65c-3.1836 1.2734-6.2695 2.9492-9.1602 5.043l-164.12 119.24-133.07-0.003907c-10.297 0-19.359 2.9375-27.688 9l-202.64 147.22c-8.6094 6.2578-12.184 17.266-8.8906 27.391 3.293 10.125 12.648 16.934 23.301 16.934h31.395v384.56h-2.7148c-11.387 0-20.656 9.2695-20.656 20.656v33.797c0 11.387 9.2695 20.656 20.656 20.656h228v4.5938c0 13.25 10.777 24.023 24.023 24.023h514.04c13.25 0 24.023-10.777 24.023-24.023v-4.5938h234.52c11.387 0 20.656-9.2695 20.656-20.656v-33.797c0-11.387-9.2695-20.656-20.656-20.656h-9.2344l0.003906-384.56h31.383c10.641 0 20.008-6.8086 23.301-16.934 3.293-10.141-0.26953-21.148-8.8906-27.391zm-468.57-394.98-11.805 16.898c-3.7227 5.3125-3.7227 12.391 0 17.719l11.805 16.898h-68.094v-51.504h68.094zm-90 144.55c3.8945-2.8164 9.2812-2.7656 13.102 0.13281 0.085937 0.0625 0.17187 0.12109 0.25781 0.19531l257.47 187.07-12.918 17.828-242.38-176.09c-2.707-1.9688-5.8906-2.9609-9.0859-2.9609s-6.3789 0.98047-9.0859 2.9492l-242.36 176.09-12.918-17.828zm156.61 679.32v-170.34c0-24.992-20.328-45.32-45.32-45.32h-209.68c-24.992 0-45.32 20.328-45.32 45.32v170.34l-62.535-0.003906v-464.03l212.7-154.54 212.7 154.53v464.03h-62.535zm-269.39 0v-170.34c0-7.9336 6.4531-14.387 14.387-14.387h89.375v184.73zm134.7-184.73h89.375c7.9336 0 14.387 6.4531 14.387 14.387v170.34h-103.76zm-346.79-366.37c2.9883-2.168 5.8281-3.0859 9.5156-3.0859h90.488l-53.02 38.523c-12.797 9.293-15.66 27.281-6.3789 40.09l15.516 21.402c4.5664 6.3047 11.059 10.285 18.746 11.512 4.4336 0.71094 8.7539 0.37891 12.832-0.85547v28.027h-274.34zm-144.08 166.53h231.77v384.56h-231.77zm-23.363 428.74v-13.262h217.73v13.262zm248.66 28.605v-41.867h500.24v41.867zm755.41-28.605h-224.25v-13.262h224.24v13.262zm-29.891-44.18h-231.78v-384.56h231.79zm-231.78-415.49v-28.016c2.6211 0.79688 5.3398 1.2227 8.1289 1.2227 1.5547 0 3.1211-0.12109 4.7031-0.37891 7.6914-1.2227 14.168-5.2031 18.746-11.512l15.516-21.402c9.2812-12.809 6.418-30.785-6.3789-40.09l-53.02-38.523h90.488c3.6875 0 6.5273 0.91797 9.5156 3.0859l186.64 135.61zm-566.5 242.38h-73.285c-13.395 0-24.305 10.898-24.305 24.305v73.285c0 13.395 10.898 24.305 24.305 24.305h73.285c13.395 0 24.305-10.898 24.305-24.305v-73.285c0.003906-13.406-10.906-24.305-24.305-24.305zm-6.6211 90.957h-60.023v-60.023h60.023zm6.6211-251.17h-73.285c-13.395 0-24.305 10.898-24.305 24.305v73.285c0 13.395 10.898 24.305 24.305 24.305h73.285c13.395 0 24.305-10.898 24.305-24.305v-73.285c0.003906-13.406-10.906-24.305-24.305-24.305zm-6.6211 90.953h-60.023v-60.023h60.023zm652.37 30.934h73.285c13.395 0 24.305-10.898 24.305-24.305v-73.285c0-13.395-10.898-24.305-24.305-24.305h-73.285c-13.395 0-24.305 10.898-24.305 24.305v73.285c-0.003906 13.406 10.906 24.305 24.305 24.305zm6.6211-90.957h60.023v60.023h-60.023zm-6.6211 251.17h73.285c13.395 0 24.305-10.898 24.305-24.305v-73.285c0-13.395-10.898-24.305-24.305-24.305h-73.285c-13.395 0-24.305 10.898-24.305 24.305v73.285c-0.003906 13.406 10.906 24.305 24.305 24.305zm6.6211-90.957h60.023v60.023h-60.023zm-212.75-216.13h-73.285c-13.395 0-24.305 10.898-24.305 24.305v73.285c0 13.395 10.898 24.305 24.305 24.305h73.285c13.395 0 24.305-10.898 24.305-24.305v-73.285c0.003906-13.406-10.895-24.305-24.305-24.305zm-6.625 90.953h-60.023v-60.023h60.023zm-153.57-90.953h-73.285c-13.395 0-24.305 10.898-24.305 24.305v73.285c0 13.395 10.898 24.305 24.305 24.305h73.285c13.395 0 24.305-10.898 24.305-24.305v-73.285c-0.011718-13.406-10.91-24.305-24.305-24.305zm-6.6367 90.953h-60.023v-60.023h60.023zm141.37-205.7c0-50.328-40.945-91.273-91.273-91.273s-91.273 40.945-91.273 91.273c0 50.324 40.945 91.285 91.273 91.285s91.273-40.949 91.273-91.285zm-91.273 60.355c-33.281 0-60.355-27.074-60.355-60.355s27.074-60.355 60.355-60.355 60.355 27.074 60.355 60.355-27.074 60.355-60.355 60.355zm15.465-95.477v35.117c0 5.5234-2.9492 10.629-7.7266 13.395l-17.289 9.9805c-2.4375 1.4062-5.0938 2.0703-7.7148 2.0703-5.3398 0-10.543-2.7656-13.406-7.7383-4.2734-7.3945-1.7383-16.848 5.6562-21.121l9.5625-5.5234v-26.191c0-8.5469 6.918-15.465 15.465-15.465s15.453 6.9414 15.453 15.477z"/>
</svg>
