<?xml version="1.0" encoding="UTF-8"?>
<svg width="1200pt" height="1200pt" version="1.1" viewBox="0 0 1200 1200" xmlns="http://www.w3.org/2000/svg">
 <path d="m1149.7 76.828h-692.76c-5.3906 0-9.7969 4.4062-9.7969 9.7969v378.56l-80.578-64.734c-3.1406-6.4219-7.1719-10.875-12-14.344 11.484-43.125 23.625-103.08 19.266-187.74-8.3438-162.84-238.97-154.5-239.68-1.9688-0.32812 76.172-30.141 119.67-83.906 122.53-4.1719 0.1875-7.7812 3.0938-8.9062 7.125-6.5156 23.391 23.391 62.297 43.922 74.297-5.3906 9.9375-8.25 22.922-9.7969 40.781l-32.812 377.58c-0.375 4.4062 2.2031 8.3438 6.0938 9.8906-0.79687 4.5938-1.6406 8.9062-2.4375 12.938-5.0625 26.016-9.4688 48.422 13.969 57.328 13.359 5.0625 25.312 7.9219 34.875 7.3125l1.5469 207.32c0.046874 5.3906 4.4062 9.7031 9.75 9.7031h248.68c4.4531 0 8.3438-3 9.4688-7.3125 24.375-93.703 35.531-345.1 13.078-440.39-0.75-8.0625 15.281-72 20.344-93.562l49.172 20.906v96.375c0 5.4375 4.3594 9.7969 9.7969 9.7969h692.76c5.3906 0 9.7969-4.3594 9.7969-9.7969l-0.09375-612.61c0-5.3906-4.3594-9.7969-9.75-9.7969zm-934.5 149.26-0.046876-1.6406c19.641-1.125 52.078-7.875 71.156-24.234 10.453 13.031 24.562 21 34.125 25.828-0.89062 44.625-13.453 77.812-34.875 91.594-12.422 7.9688-26.953 8.4844-42.094 1.5-4.9219-2.25-10.688-0.09375-12.984 4.7812-2.25 4.875-0.14063 10.688 4.7812 12.984 10.547 4.8281 21.188 7.0781 31.453 6.5625 0.60938 13.125 4.3594 28.594 21.797 37.172 4.4062 15.984 7.1719 30.656 8.5312 45.047-17.438 6.8906-42.797 6.1875-75.656-1.9688-10.641-15.328-20.484-31.781-29.062-50.438 25.547-19.312 24.328-79.031 22.875-147.19zm-114.61 658.74c-2.25 1.6875-10.031 4.6406-33.375-4.2188-6.8438-2.625-7.0781-7.875-1.7344-35.344 0.84375-4.2656 1.7344-8.9531 2.625-13.875l35.766 4.4062c0.65625 15.094 4.6406 43.125-3.2812 49.031zm272.06-280.92c-6.0469 25.078-11.812 48.984-13.828 63.797-73.828 8.9531-140.58 5.9062-198.79-9l18.516-154.6c1.5469-12.797-17.859-15.141-19.406-2.3438l-37.922 316.4-58.312-7.1719 32.016-368.21c3.7031-42.328 8.3438-47.156 79.125-62.766 31.078 68.297 75.609 105.47 114.7 161.21 4.875 6.9844 15.844 4.7812 17.578-3.6094 10.219-49.406 17.062-92.531 4.7344-147.74 41.344 15.141 30.797 4.4531 49.125 43.875 13.828 29.766 26.906 57.844 26.531 102.05-0.09375 10.359-7.5 41.062-14.062 68.109zm29.625-41.391c2.3438-11.391 3.8906-20.719 3.9375-26.484 0.375-41.062-9.9844-69.844-21.75-96.094l121.36 97.453c2.8125 2.25 6.6562 2.7656 9.9844 1.3594l132.98-57.047 19.594 60.891-153.71 67.688zm737.63 126.94h-673.22v-78.281l44.203 18.797c2.4375 1.0312 5.3438 1.0312 7.7812-0.046875l165.66-72.984c4.5938-2.0156 6.8906-7.1719 5.3438-11.906l-2.2969-7.125c21.656-15.234 34.828-24.422 59.297-23.344 51.516 2.2031 79.547-32.062 63-55.734-2.1094-3-5.7656-4.5938-9.4219-4.0781-34.219 4.9688-50.484 1.9688-82.453-0.5625-17.062-1.4531-32.062-0.1875-54.469 9.6562-2.4375-4.4531-7.7344-6.3281-12.422-4.3125l-137.44 58.922-46.781-37.594v-384.42h673.22zm-470.34-206.9c26.484-11.953 38.906-9.6094 59.344-7.7812 23.672 2.1094 40.031 3.5156 65.672 0.51562-2.8125 11.109-22.5 20.812-47.016 19.734-28.688-1.2188-46.172 9.3281-66.422 23.438zm192-167.29 57.938-112.27c1.6875-3.2344 5.0156-5.2969 8.6719-5.2969h150.47c7.3125 0 12.047 7.7812 8.6719 14.297l-57.938 112.22c-1.6875 3.2812-5.0156 5.3438-8.6719 5.3438h-150.42c-7.3125 0-12.047-7.7812-8.7188-14.297zm-323.58-70.031c-7.1719-10.688 9.0469-21.609 16.219-10.875l18.281 27.188 19.828-69.141c1.2188-4.2188 5.0156-7.125 9.375-7.125h133.36c12.844 0 12.891 19.547 0 19.547h-126l-23.578 82.312c-2.2969 7.9688-12.891 9.6094-17.484 2.7656zm506.63 329.53c6.9375 5.9062 2.8125 17.25-6.2812 17.25h-162.79c-5.3906 0-9.75-4.3594-9.75-9.75l-0.046876-136.78c0-8.2969 9.7031-12.797 16.078-7.4531z"/>
</svg>
